<?xml version="1.0" encoding="UTF-8" standalone="no"?>
<!-- Created with Inkscape (http://www.inkscape.org/) -->

<svg
   xmlns:dc="http://purl.org/dc/elements/1.1/"
   xmlns:cc="http://creativecommons.org/ns#"
   xmlns:rdf="http://www.w3.org/1999/02/22-rdf-syntax-ns#"
   xmlns:svg="http://www.w3.org/2000/svg"
   xmlns="http://www.w3.org/2000/svg"
   xmlns:sodipodi="http://sodipodi.sourceforge.net/DTD/sodipodi-0.dtd"
   xmlns:inkscape="http://www.inkscape.org/namespaces/inkscape"
   width="210mm"
   height="297mm"
   viewBox="0 0 210 297"
   version="1.1"
   id="svg8"
   inkscape:version="0.92.4 (5da689c313, 2019-01-14)"
   sodipodi:docname="GenesysLogoSVG.svg">
  <defs
     id="defs2">
    <clipPath
       id="clipPath3731"
       clipPathUnits="userSpaceOnUse">
      <path
         inkscape:connector-curvature="0"
         id="path3729"
         d="M 0,1584 H 1800 V 0 H 0 Z" />
    </clipPath>
    <clipPath
       id="clipPath3743"
       clipPathUnits="userSpaceOnUse">
      <path
         inkscape:connector-curvature="0"
         id="path3741"
         d="M 0,1584 H 1800 V 0 H 0 Z" />
    </clipPath>
    <clipPath
       id="clipPath3811"
       clipPathUnits="userSpaceOnUse">
      <path
         inkscape:connector-curvature="0"
         id="path3809"
         d="M 558.505,1129.86 H 1241.9 V 449.072 H 558.505 Z" />
    </clipPath>
  </defs>
  <sodipodi:namedview
     id="base"
     pagecolor="#ffffff"
     bordercolor="#666666"
     borderopacity="1.0"
     inkscape:pageopacity="0.0"
     inkscape:pageshadow="2"
     inkscape:zoom="0.98994949"
     inkscape:cx="494.33854"
     inkscape:cy="656.08391"
     inkscape:document-units="mm"
     inkscape:current-layer="g3721"
     showgrid="false"
     inkscape:window-width="1278"
     inkscape:window-height="1351"
     inkscape:window-x="-8"
     inkscape:window-y="0"
     inkscape:window-maximized="0" />
  <metadata
     id="metadata5">
    <rdf:RDF>
      <cc:Work
         rdf:about="">
        <dc:format>image/svg+xml</dc:format>
        <dc:type
           rdf:resource="http://purl.org/dc/dcmitype/StillImage" />
        <dc:title></dc:title>
      </cc:Work>
    </rdf:RDF>
  </metadata>
  <g
     inkscape:label="Layer 1"
     inkscape:groupmode="layer"
     id="layer1">
    <g
       transform="matrix(0.35277777,0,0,-0.35277777,-138.33928,462.35197)"
       inkscape:label="GenesysLogo"
       id="g3721">
      <path
         inkscape:connector-curvature="0"
         id="path3723"
         style="fill:none;fill-opacity:1;fill-rule:nonzero;stroke:none;stroke-width:0.27409026"
         d="m 435.54609,900.5508 h 493.36243 v 283.4094 H 435.54609 Z" />
      <g
         id="g3725"
         transform="matrix(0.27409025,0,0,0.27409025,435.54609,818.04963)">
        <g
           clip-path="url(#clipPath3731)"
           id="g3727">
          <g
             transform="translate(902.0352,1154.563)"
             id="g3733">
            <path
               inkscape:connector-curvature="0"
               id="path3735"
               style="fill:#ffffff;fill-opacity:1;fill-rule:nonzero;stroke:none"
               d="M 0,0 C 134.987,0 252.916,-72.945 316.578,-181.557 H 869.823 V -551.886 H 316.578 C 252.916,-660.498 134.987,-733.443 0,-733.443 c -134.986,0 -252.917,72.945 -316.58,181.557 h -553.245 v 370.329 H -316.58 C -252.917,-72.945 -134.986,0 0,0" />
          </g>
        </g>
      </g>
      <g
         id="g3737"
         transform="matrix(0.27409025,0,0,0.27409025,435.54609,818.04963)">
        <g
           clip-path="url(#clipPath3743)"
           id="g3739">
          <g
             transform="translate(902.4834,1154.563)"
             id="g3745">
            <path
               inkscape:connector-curvature="0"
               id="path3747"
               style="fill:#ffffff;fill-opacity:1;fill-rule:nonzero;stroke:none"
               d="M 0,0 C 134.987,0 252.916,-72.945 316.578,-181.557 H 869.823 V -551.886 H 316.578 C 252.916,-660.498 134.987,-733.443 0,-733.443 c -134.985,0 -252.917,72.945 -316.579,181.557 h -553.245 v 370.329 h 553.245 C -252.917,-72.945 -134.985,0 0,0" />
          </g>
          <g
             transform="translate(1373.8857,918.3437)"
             id="g3749">
            <path
               inkscape:connector-curvature="0"
               id="path3751"
               style="fill:#b6e1ea;fill-opacity:1;fill-rule:nonzero;stroke:none"
               d="m 0,0 -2.863,4.36 2.18,1.43 2.861,-4.36 z m 5.007,-7.631 -2.86,4.361 2.177,1.431 2.86,-4.362 z m 5.007,-7.626 -2.864,4.357 2.181,1.433 2.859,-4.36 z m 5.004,-7.631 -2.861,4.358 2.181,1.433 2.86,-4.361 z m 5.006,-7.63 -2.861,4.361 2.182,1.43 2.86,-4.361 z m 5.01,-7.63 -2.863,4.361 2.181,1.43 2.86,-4.358 z m 5.003,-7.627 -2.859,4.358 2.179,1.429 2.862,-4.357 z m 5.007,-7.63 -2.859,4.357 2.18,1.434 2.86,-4.362 z m 5.008,-7.631 -2.861,4.361 2.177,1.43 2.863,-4.36 z m 5.007,-7.627 -2.861,4.358 2.181,1.43 2.859,-4.357 z m 5.006,-7.63 -2.861,4.358 2.179,1.433 2.863,-4.36 z" />
          </g>
          <path
             inkscape:connector-curvature="0"
             id="path3753"
             style="fill:#b6e1ea;fill-opacity:1;fill-rule:nonzero;stroke:none"
             d="m 1410.57,939.709 h -95.163 v 2.61 h 95.163 z" />
          <g
             transform="translate(1698.6494,955.1016)"
             id="g3755">
            <path
               inkscape:connector-curvature="0"
               id="path3757"
               style="fill:#b6e1ea;fill-opacity:1;fill-rule:nonzero;stroke:none"
               d="M 0,0 C -1.677,0.146 -3.384,0.2 -5.074,0.172 L -5.118,2.779 C -3.343,2.809 -1.544,2.749 0.22,2.6 Z m -13.897,-0.774 -0.515,2.556 c 1.738,0.348 3.52,0.608 5.291,0.778 l 0.244,-2.597 c -1.685,-0.159 -3.374,-0.406 -5.02,-0.737 M 8.739,-1.544 C 7.113,-1.102 5.443,-0.74 3.78,-0.467 L 4.198,2.106 C 5.95,1.822 7.708,1.44 9.422,0.974 Z m -31.145,-1.749 -0.968,2.424 c 1.657,0.656 3.357,1.234 5.064,1.718 l 0.71,-2.512 c -1.623,-0.456 -3.239,-1.004 -4.806,-1.63 m 39.459,-1.349 c -1.515,0.731 -3.094,1.386 -4.683,1.957 l 0.879,2.455 c 1.674,-0.602 3.333,-1.294 4.932,-2.062 z m -47.37,-2.664 -1.384,2.208 c 1.505,0.943 3.077,1.822 4.669,2.599 l 1.146,-2.339 c -1.508,-0.74 -3.002,-1.572 -4.431,-2.468 m 54.996,-1.886 c -1.369,0.994 -2.799,1.926 -4.256,2.769 l 1.306,2.255 c 1.534,-0.886 3.042,-1.87 4.481,-2.914 z m -62.063,-3.485 -1.758,1.923 c 1.312,1.2 2.702,2.339 4.128,3.398 l 1.552,-2.096 c -1.356,-1.004 -2.675,-2.09 -3.922,-3.225 m 68.747,-2.354 c -1.16,1.214 -2.4,2.387 -3.692,3.486 l 1.69,1.982 c 1.36,-1.154 2.668,-2.388 3.889,-3.669 z m -74.741,-4.195 -2.072,1.579 c 1.075,1.409 2.238,2.782 3.451,4.081 l 1.903,-1.786 c -1.159,-1.23 -2.26,-2.535 -3.282,-3.874 m 80.275,-2.748 c -0.926,1.406 -1.941,2.782 -3.008,4.087 l 2.017,1.653 c 1.126,-1.376 2.192,-2.823 3.168,-4.304 z m -84.998,-4.771 -2.325,1.184 c 0.808,1.585 1.706,3.144 2.67,4.634 l 2.188,-1.416 c -0.913,-1.413 -1.769,-2.894 -2.533,-4.402 m 89.197,-3.045 c -0.662,1.554 -1.409,3.086 -2.228,4.56 l 2.281,1.264 c 0.86,-1.552 1.648,-3.167 2.344,-4.804 z m -92.49,-5.197 -2.498,0.74 c 0.504,1.698 1.103,3.392 1.786,5.041 l 2.411,-0.997 c -0.651,-1.566 -1.222,-3.174 -1.699,-4.784 m 95.202,-3.248 c -0.366,1.646 -0.826,3.292 -1.363,4.891 l 2.471,0.828 c 0.564,-1.683 1.049,-3.418 1.437,-5.148 z m -96.95,-5.453 -2.589,0.28 c 0.19,1.768 0.476,3.543 0.845,5.278 l 2.55,-0.549 c -0.352,-1.643 -0.622,-3.33 -0.806,-5.009 m 98.103,-3.348 c -0.072,1.697 -0.228,3.398 -0.467,5.058 l 2.583,0.369 c 0.249,-1.745 0.411,-3.537 0.486,-5.319 z m -100.864,-5.713 c -0.088,1.234 -0.131,2.485 -0.131,3.719 0,0.541 0.01,1.082 0.026,1.623 l 2.603,-0.081 c -0.013,-0.514 -0.02,-1.028 -0.02,-1.546 -0.004,-1.169 0.041,-2.359 0.121,-3.532 z m 103.237,-1.62 -2.594,0.267 c 0.173,1.664 0.257,3.372 0.257,5.068 h 2.607 c 0,-1.785 -0.091,-3.58 -0.27,-5.335 m -101.74,-7.603 c -0.443,1.718 -0.798,3.483 -1.062,5.24 l 2.58,0.382 c 0.25,-1.666 0.588,-3.343 1.008,-4.976 z m 99.951,-1.572 -2.502,0.731 c 0.47,1.619 0.862,3.282 1.163,4.939 l 2.566,-0.463 c -0.318,-1.748 -0.73,-3.499 -1.227,-5.207 m -96.807,-7.234 c -0.743,1.606 -1.416,3.275 -1.994,4.963 l 2.468,0.844 c 0.547,-1.602 1.186,-3.187 1.891,-4.712 z m 93.389,-1.464 -2.329,1.17 c 0.757,1.504 1.443,3.07 2.038,4.648 l 2.441,-0.923 c -0.629,-1.663 -1.352,-3.31 -2.15,-4.895 m -88.717,-6.626 c -1.02,1.45 -1.98,2.971 -2.853,4.52 l 2.275,1.278 c 0.825,-1.471 1.737,-2.918 2.709,-4.294 z m 83.788,-1.319 -2.083,1.569 c 1.015,1.345 1.971,2.762 2.844,4.209 l 2.234,-1.349 c -0.919,-1.521 -1.926,-3.012 -2.995,-4.429 m -77.736,-5.801 c -1.265,1.241 -2.482,2.566 -3.616,3.935 l 2.008,1.663 c 1.078,-1.301 2.234,-2.558 3.434,-3.738 z m 71.465,-1.126 -1.769,1.914 c 1.241,1.146 2.435,2.366 3.551,3.631 l 1.954,-1.725 c -1.174,-1.328 -2.432,-2.616 -3.736,-3.82 m -64.24,-4.803 c -1.467,1 -2.901,2.085 -4.26,3.231 l 1.68,1.995 c 1.292,-1.089 2.651,-2.12 4.047,-3.07 z m 56.833,-0.893 -1.4,2.197 c 1.42,0.903 2.813,1.893 4.145,2.941 l 1.613,-2.048 c -1.397,-1.102 -2.863,-2.143 -4.358,-3.09 m -48.659,-3.645 c -1.619,0.717 -3.224,1.529 -4.774,2.414 l 1.296,2.262 c 1.468,-0.839 2.995,-1.609 4.533,-2.289 z m 40.349,-0.632 -0.977,2.418 c 1.565,0.632 3.11,1.351 4.601,2.143 l 1.221,-2.302 c -1.566,-0.832 -3.199,-1.593 -4.845,-2.259 m -31.487,-2.353 c -1.725,0.409 -3.45,0.92 -5.13,1.508 l 0.866,2.461 c 1.593,-0.561 3.231,-1.044 4.868,-1.433 z m 22.542,-0.351 -0.528,2.555 c 1.657,0.339 3.306,0.768 4.912,1.275 l 0.789,-2.485 C 9.747,-98.98 8.006,-99.433 6.265,-99.791 m -13.293,-0.984 c -1.776,0.095 -3.564,0.28 -5.315,0.558 l 0.406,2.576 c 1.663,-0.264 3.36,-0.443 5.047,-0.531 z m 4.007,-0.064 -0.058,2.606 c 1.69,0.041 3.393,0.166 5.059,0.375 l 0.33,-2.586 c -1.759,-0.223 -3.551,-0.355 -5.331,-0.395" />
          </g>
          <g
             transform="translate(422.8105,843.0044)"
             id="g3759">
            <path
               inkscape:connector-curvature="0"
               id="path3761"
               style="fill:#b6e1ea;fill-opacity:1;fill-rule:nonzero;stroke:none"
               d="M 0,0 C -1.667,0.227 -3.371,0.372 -5.058,0.43 L -4.97,3.032 C -3.195,2.975 -1.403,2.823 0.355,2.583 Z m -13.918,-0.078 -0.383,2.579 c 1.752,0.261 3.543,0.43 5.322,0.512 l 0.115,-2.608 c -1.691,-0.073 -3.391,-0.236 -5.054,-0.483 m 22.559,-1.93 c -1.599,0.53 -3.245,0.984 -4.895,1.342 L 4.304,1.883 C 6.041,1.501 7.779,1.024 9.462,0.467 Z m -31.177,-0.176 -0.845,2.468 c 1.68,0.578 3.408,1.071 5.139,1.471 l 0.584,-2.543 c -1.639,-0.375 -3.282,-0.844 -4.878,-1.396 m 39.311,-3.381 c -1.481,0.819 -3.019,1.563 -4.567,2.214 l 1.014,2.405 c 1.633,-0.686 3.252,-1.474 4.81,-2.334 z m -47.394,-0.26 -1.284,2.268 c 1.544,0.876 3.157,1.678 4.783,2.388 l 1.041,-2.391 c -1.545,-0.673 -3.073,-1.433 -4.54,-2.265 m 54.744,-4.713 c -1.309,1.068 -2.685,2.079 -4.091,3.006 l 1.434,2.177 c 1.48,-0.974 2.93,-2.038 4.306,-3.168 z m -62.036,-0.342 -1.674,2.002 c 1.363,1.14 2.799,2.222 4.273,3.215 l 1.458,-2.164 c -1.4,-0.943 -2.766,-1.967 -4.057,-3.053 m 68.365,-5.882 c -1.093,1.288 -2.263,2.533 -3.479,3.696 l 1.805,1.883 c 1.281,-1.228 2.512,-2.539 3.661,-3.892 z m -74.626,-0.405 -2.005,1.663 c 1.133,1.366 2.35,2.691 3.621,3.936 l 1.822,-1.864 c -1.204,-1.183 -2.363,-2.441 -3.438,-3.735 m 79.723,-6.856 c -0.838,1.463 -1.764,2.898 -2.751,4.262 l 2.113,1.529 c 1.037,-1.44 2.014,-2.952 2.9,-4.493 z m -84.744,-0.463 -2.275,1.271 c 0.865,1.548 1.826,3.073 2.853,4.526 l 2.13,-1.504 c -0.973,-1.379 -1.886,-2.822 -2.708,-4.293 m 88.436,-7.6 c -0.554,1.589 -1.203,3.168 -1.93,4.692 l 2.356,1.116 c 0.764,-1.61 1.447,-3.272 2.035,-4.946 z m -92.039,-0.508 -2.472,0.836 c 0.568,1.677 1.234,3.35 1.978,4.969 l 2.37,-1.091 c -0.707,-1.536 -1.339,-3.125 -1.876,-4.714 M 41.4,-40.69 c -0.257,1.67 -0.608,3.34 -1.038,4.966 l 2.522,0.665 c 0.453,-1.713 0.822,-3.471 1.092,-5.23 z m -96.258,-0.534 -2.58,0.372 c 0.25,1.758 0.598,3.523 1.034,5.243 l 2.529,-0.636 c -0.412,-1.636 -0.744,-3.313 -0.983,-4.979 m -3.07,-8.959 c -0.024,0.653 -0.038,1.312 -0.038,1.971 0,1.123 0.038,2.258 0.112,3.37 l 2.6,-0.169 c -0.068,-1.054 -0.101,-2.134 -0.101,-3.201 0,-0.629 0.01,-1.25 0.033,-1.873 z m 102.242,-3.367 -2.597,0.266 c 0.173,1.671 0.261,3.378 0.261,5.072 0,1.247 -0.047,2.508 -0.142,3.742 l 2.6,0.197 c 0.101,-1.303 0.148,-2.624 0.152,-3.939 0,-1.786 -0.094,-3.58 -0.274,-5.338 m -101.042,-5.904 c -0.386,1.732 -0.687,3.507 -0.893,5.271 l 2.59,0.302 c 0.196,-1.678 0.48,-3.357 0.849,-5.001 z m 99.233,-3.267 -2.501,0.736 c 0.476,1.619 0.872,3.279 1.176,4.936 l 2.563,-0.474 c -0.318,-1.744 -0.737,-3.492 -1.238,-5.198 m -96.363,-5.63 c -0.7,1.637 -1.318,3.323 -1.842,5.02 l 2.491,0.768 c 0.497,-1.609 1.085,-3.212 1.748,-4.764 z m 92.909,-3.06 -2.323,1.18 c 0.76,1.502 1.453,3.063 2.059,4.639 l 2.434,-0.93 c -0.636,-1.66 -1.366,-3.307 -2.17,-4.889 m -88.467,-5.162 c -0.983,1.478 -1.9,3.026 -2.725,4.601 l 2.309,1.21 c 0.785,-1.493 1.654,-2.961 2.586,-4.367 z m 83.487,-2.756 -2.073,1.583 c 1.028,1.345 1.992,2.751 2.871,4.192 l 2.224,-1.362 c -0.926,-1.511 -1.941,-2.999 -3.022,-4.413 m -77.625,-4.523 c -1.233,1.279 -2.417,2.634 -3.512,4.031 l 2.052,1.609 c 1.041,-1.326 2.164,-2.614 3.333,-3.827 z m 71.299,-2.356 -1.754,1.93 c 1.254,1.137 2.458,2.351 3.58,3.601 l 1.941,-1.738 c -1.18,-1.321 -2.449,-2.596 -3.767,-3.793 m -64.22,-3.749 c -1.45,1.038 -2.856,2.161 -4.181,3.333 l 1.727,1.952 c 1.258,-1.113 2.594,-2.178 3.972,-3.161 z m 56.755,-1.876 -1.375,2.217 c 1.437,0.89 2.84,1.864 4.171,2.895 l 1.596,-2.063 c -1.402,-1.086 -2.88,-2.113 -4.392,-3.049 m -48.685,-2.843 c -1.602,0.75 -3.191,1.599 -4.716,2.518 l 1.346,2.231 c 1.447,-0.871 2.954,-1.674 4.479,-2.39 z m 40.322,-1.332 -0.946,2.426 c 1.565,0.613 3.123,1.316 4.624,2.089 l 1.197,-2.314 c -1.586,-0.819 -3.226,-1.56 -4.875,-2.201 m -31.518,-1.84 c -1.721,0.447 -3.439,0.988 -5.102,1.613 l 0.916,2.441 c 1.579,-0.591 3.205,-1.106 4.838,-1.532 z m 22.532,-0.736 -0.487,2.559 c 1.653,0.315 3.313,0.72 4.93,1.207 l 0.75,-2.496 c -1.704,-0.514 -3.452,-0.942 -5.193,-1.27 m -13.31,-0.771 c -1.765,0.121 -3.55,0.345 -5.304,0.652 l 0.45,2.57 c 1.67,-0.295 3.363,-0.504 5.04,-0.625 z m 4.01,-0.133 -0.017,2.607 c 1.687,0.01 3.394,0.108 5.068,0.291 l 0.283,-2.589 c -1.761,-0.194 -3.556,-0.298 -5.334,-0.309" />
          </g>
          <g
             transform="translate(90.5186,918.6475)"
             id="g3763">
            <path
               inkscape:connector-curvature="0"
               id="path3765"
               style="fill:#b6e1ea;fill-opacity:1;fill-rule:nonzero;stroke:none"
               d="m 0,0 -3.452,3.908 1.954,1.724 3.452,-3.908 z m 6.037,-6.842 -3.451,3.911 1.954,1.724 3.455,-3.908 z m 6.042,-6.84 -3.452,3.911 1.954,1.725 3.452,-3.908 z m 6.041,-6.839 -3.452,3.909 1.954,1.727 3.452,-3.908 z m 6.042,-6.839 -3.453,3.908 1.955,1.728 3.451,-3.912 z m 6.041,-6.839 -3.452,3.908 1.954,1.724 3.452,-3.908 z m 6.037,-6.839 -3.451,3.908 1.954,1.724 3.451,-3.908 z m 6.042,-6.843 -3.451,3.912 1.954,1.724 3.451,-3.908 z m 6.041,-6.839 -3.451,3.908 1.954,1.728 3.451,-3.908 z m 6.041,-6.839 -3.451,3.908 1.954,1.727 3.451,-3.908 z m 6.042,-6.839 -3.452,3.908 1.954,1.724 3.452,-3.908 z m 6.041,-6.84 -3.455,3.908 1.958,1.725 3.451,-3.908 z m 6.038,-6.838 -3.451,3.908 1.953,1.724 3.452,-3.909 z m 6.041,-6.843 -3.451,3.908 1.954,1.728 3.451,-3.908 z m 6.041,-6.839 -3.451,3.908 1.954,1.727 3.451,-3.908 z m 6.042,-6.84 -3.451,3.909 1.954,1.728 3.451,-3.909 z m 6.041,-6.839 -3.455,3.908 1.954,1.724 3.455,-3.907 z m 6.038,-6.838 -3.452,3.907 1.954,1.725 3.453,-3.909 z m 6.042,-6.844 -3.452,3.909 1.954,1.727 3.452,-3.908 z m 6.041,-6.838 -3.452,3.908 1.954,1.728 3.452,-3.908 z m 6.041,-6.84 -3.451,3.908 1.954,1.728 3.451,-3.908 z m 6.042,-6.839 -3.453,3.908 1.954,1.724 3.453,-3.908 z m 6.038,-6.839 -3.453,3.908 1.955,1.724 3.452,-3.908 z m 6.041,-6.843 -3.452,3.908 1.954,1.728 3.452,-3.908 z m 6.041,-6.838 -3.452,3.908 1.955,1.727 3.451,-3.908 z m 6.042,-6.839 -3.452,3.908 1.954,1.727 3.452,-3.911 z m 6.041,-6.84 -3.452,3.908 1.954,1.728 3.452,-3.909 z m 6.038,-6.84 -3.452,3.908 1.954,1.725 3.451,-3.908 z m 6.041,-6.842 -3.452,3.913 1.954,1.722 3.452,-3.908 z m 6.041,-6.839 -3.451,3.908 1.954,1.728 3.451,-3.908 z m 6.042,-6.838 -3.452,3.908 1.954,1.727 3.452,-3.909 z m 6.041,-6.84 -3.452,3.908 1.954,1.728 3.452,-3.912 z m 6.041,-6.84 -3.451,3.908 1.954,1.725 3.451,-3.908 z m 6.038,-6.842 -3.452,3.908 1.954,1.728 3.452,-3.907 z m 6.041,-6.84 -3.451,3.913 1.954,1.724 3.451,-3.908 z" />
          </g>
          <g
             transform="translate(312.4238,917.708)"
             id="g3767">
            <path
               inkscape:connector-curvature="0"
               id="path3769"
               style="fill:#b6e1ea;fill-opacity:1;fill-rule:nonzero;stroke:none"
               d="M 0,0 -1.964,1.714 1.467,5.642 3.431,3.928 Z m -6.004,-6.873 -1.961,1.714 3.428,3.928 1.965,-1.714 z m -6,-6.874 -1.965,1.715 3.431,3.928 1.961,-1.713 z m -6.005,-6.872 -1.964,1.714 3.431,3.928 1.964,-1.714 z m -6.004,-6.873 -1.965,1.718 3.432,3.924 1.964,-1.714 z m -6.001,-6.873 -1.964,1.717 3.432,3.925 1.96,-1.714 z m -6.004,-6.873 -1.964,1.717 3.431,3.925 1.961,-1.714 z m -6.004,-6.873 -1.964,1.714 3.431,3.928 1.964,-1.714 z m -6.004,-6.873 -1.961,1.718 3.428,3.924 1.964,-1.714 z m -6.001,-6.87 -1.964,1.714 3.428,3.926 1.964,-1.715 z m -6.004,-6.875 -1.964,1.716 3.432,3.929 1.963,-1.718 z m -6.005,-6.87 -1.964,1.713 3.432,3.929 1.964,-1.717 z m -6,-6.873 -1.964,1.714 3.432,3.927 1.96,-1.716 z m -6.004,-6.874 -1.964,1.715 3.431,3.928 1.961,-1.717 z m -6.004,-6.872 -1.964,1.713 3.431,3.929 1.964,-1.718 z m -6.004,-6.873 -1.961,1.713 3.428,3.929 1.964,-1.714 z m -6.001,-6.873 -1.964,1.714 3.431,3.927 1.961,-1.713 z m -6.004,-6.873 -1.964,1.714 3.431,3.929 1.964,-1.715 z m -6.005,-6.873 -1.963,1.714 3.431,3.928 1.964,-1.714 z m -6,-6.873 -1.964,1.713 3.428,3.929 1.964,-1.713 z m -6.004,-6.873 -1.964,1.717 3.431,3.926 1.964,-1.715 z m -6.004,-6.873 -1.961,1.717 3.428,3.925 1.964,-1.714 z m -6.004,-6.872 -1.962,1.717 3.428,3.924 1.965,-1.713 z m -6.001,-6.874 -1.964,1.718 3.431,3.927 1.961,-1.716 z m -6.004,-6.873 -1.964,1.718 3.431,3.927 1.964,-1.717 z m -6.004,-6.873 -1.962,1.717 3.429,3.929 1.964,-1.719 z m -6.001,-6.869 -1.964,1.713 3.431,3.926 1.961,-1.715 z m -6.004,-6.876 -1.964,1.716 3.431,3.928 1.964,-1.717 z m -6.004,-6.874 -1.961,1.717 3.428,3.929 1.964,-1.718 z m -6.004,-6.87 -1.961,1.715 3.428,3.928 1.964,-1.717 z m -6.001,-6.873 -1.965,1.714 3.432,3.929 1.961,-1.718 z m -6.005,-6.873 -1.964,1.715 3.432,3.928 1.964,-1.718 z m -6.003,-6.872 -1.961,1.713 3.428,3.93 1.964,-1.719 z m -6.002,-6.873 -1.963,1.714 3.431,3.929 1.961,-1.715 z m -6.003,-6.874 -1.964,1.718 3.431,3.925 1.964,-1.714 z m -6.005,-6.873 -1.964,1.719 3.432,3.924 1.964,-1.718 z m -6.004,-6.872 -1.96,1.717 3.431,3.926 1.961,-1.715 z" />
          </g>
          <path
             inkscape:connector-curvature="0"
             id="path3771"
             style="fill:#b6e1ea;fill-opacity:1;fill-rule:nonzero;stroke:none"
             d="M 333.124,922.116 H 68.054 v 2.606 h 265.07 z" />
          <path
             inkscape:connector-curvature="0"
             id="path3773"
             style="fill:#b6e1ea;fill-opacity:1;fill-rule:nonzero;stroke:none"
             d="m 89.345,652.266 h -2.606 v 290.27 h 2.606 z" />
          <path
             inkscape:connector-curvature="0"
             id="path3775"
             style="fill:#b6e1ea;fill-opacity:1;fill-rule:nonzero;stroke:none"
             d="M 645.994,636.616 H 477.827 v 2.61 h 168.167 z" />
          <g
             transform="translate(802.6592,737.5605)"
             id="g3777">
            <path
               inkscape:connector-curvature="0"
               id="path3779"
               style="fill:#b6e1ea;fill-opacity:1;fill-rule:nonzero;stroke:none"
               d="m 0,0 -65.751,95.163 2.147,1.481 L 2.147,1.48 Z" />
          </g>
          <path
             inkscape:connector-curvature="0"
             id="path3781"
             style="fill:#b6e1ea;fill-opacity:1;fill-rule:nonzero;stroke:none"
             d="m 966.687,885.612 h -2.609 v 1.305 h 2.609 z m 0,-9.128 h -2.609 v 5.216 h 2.609 z m 0,-9.125 h -2.609 v 5.217 h 2.609 z m 0,-9.125 h -2.609 v 5.213 h 2.609 z m 0,-9.124 h -2.609 v 5.213 h 2.609 z m 0,-9.129 h -2.609 v 5.217 h 2.609 z m 0,-9.123 h -2.609 v 5.212 h 2.609 z m 0,-9.125 h -2.609 v 5.212 h 2.609 z" />
          <path
             inkscape:connector-curvature="0"
             id="path3783"
             style="fill:#b6e1ea;fill-opacity:1;fill-rule:nonzero;stroke:none"
             d="m 969.409,885.612 h -5.331 v 2.606 h 5.331 z m 9.327,0 h -5.332 v 2.606 h 5.332 z m 9.33,0 h -5.331 v 2.606 h 5.331 z m 9.329,0 h -5.331 v 2.606 h 5.331 z m 9.326,0 h -5.331 v 2.606 h 5.331 z m 9.328,0 h -5.331 v 2.606 h 5.331 z m 7.996,0 h -3.996 v 2.606 h 3.996 z" />
          <g
             transform="translate(705.7246,801.6724)"
             id="g3785">
            <path
               inkscape:connector-curvature="0"
               id="path3787"
               style="fill:#b6e1ea;fill-opacity:1;fill-rule:nonzero;stroke:none"
               d="M 0,0 -0.534,2.552 3.289,3.35 3.823,0.801 Z m -8.935,-1.867 -0.531,2.553 5.105,1.068 0.53,-2.555 z m -8.932,-1.866 -0.534,2.552 5.104,1.068 0.534,-2.555 z m -8.932,-1.866 -0.534,2.553 5.104,1.067 0.535,-2.555 z m -8.932,-1.866 -0.534,2.553 5.105,1.068 0.534,-2.555 z m -8.932,-1.866 -0.534,2.552 5.105,1.068 0.534,-2.555 z m -8.931,-1.866 -0.534,2.552 5.105,1.068 0.53,-2.555 z" />
          </g>
          <g
             transform="translate(901.1797,988.5937)"
             id="g3789">
            <path
               inkscape:connector-curvature="0"
               id="path3791"
               style="fill:#b6e1ea;fill-opacity:1;fill-rule:nonzero;stroke:none"
               d="m 0,0 c -110.16,0 -199.779,-89.622 -199.779,-199.778 0,-110.16 89.619,-199.783 199.779,-199.783 110.156,0 199.779,89.623 199.779,199.783 C 199.779,-89.622 110.156,0 0,0 m 0,-402.167 c -111.598,0 -202.389,90.791 -202.389,202.389 0,111.596 90.791,202.385 202.389,202.385 111.597,0 202.389,-90.789 202.389,-202.385 0,-111.598 -90.792,-202.389 -202.389,-202.389" />
          </g>
          <g
             transform="translate(902.4844,1101.0293)"
             id="g3793">
            <path
               inkscape:connector-curvature="0"
               id="path3795"
               style="fill:#b6e1ea;fill-opacity:1;fill-rule:nonzero;stroke:none"
               d="m 0,0 c -171.979,0 -311.893,-139.91 -311.893,-311.887 0,-171.978 139.914,-311.892 311.893,-311.892 171.977,0 311.891,139.914 311.891,311.892 C 311.891,-139.91 171.977,0 0,0 m 0,-626.39 c -84.007,0 -162.983,32.716 -222.382,92.115 -59.403,59.402 -92.118,138.381 -92.118,222.388 0,84.004 32.715,162.981 92.118,222.38 C -162.983,-30.104 -84.007,2.61 0,2.61 c 84.004,0 162.983,-32.714 222.382,-92.117 59.403,-59.399 92.114,-138.376 92.114,-222.38 0,-84.007 -32.711,-162.986 -92.114,-222.388 C 162.983,-593.674 84.004,-626.39 0,-626.39" />
          </g>
          <g
             transform="translate(900.2026,1130.0361)"
             id="g3797">
            <path
               inkscape:connector-curvature="0"
               id="path3799"
               style="fill:#b6e1ea;fill-opacity:1;fill-rule:nonzero;stroke:none"
               d="m 0,0 c -187.075,0 -339.267,-152.192 -339.267,-339.264 0,-187.074 152.192,-339.269 339.267,-339.269 187.071,0 339.266,152.195 339.266,339.269 C 339.266,-152.192 187.071,0 0,0 m 0,-681.144 c -91.32,0 -177.169,35.562 -241.744,100.133 -64.571,64.572 -100.13,150.424 -100.13,241.747 0,91.317 35.559,177.166 100.13,241.737 C -177.169,-32.956 -91.32,2.61 0,2.61 c 91.315,0 177.169,-35.566 241.744,-100.137 64.571,-64.568 100.13,-150.42 100.13,-241.737 0,-91.323 -35.559,-177.175 -100.13,-241.747 C 177.172,-645.582 91.315,-681.144 0,-681.144" />
          </g>
          <g
             transform="translate(902.0352,1038.7871)"
             id="g3801">
            <path
               inkscape:connector-curvature="0"
               id="path3803"
               style="fill:#b6e1ea;fill-opacity:1;fill-rule:nonzero;stroke:none"
               d="m 0,0 c -136.219,0 -247.038,-110.819 -247.038,-247.034 0,-136.219 110.819,-247.037 247.038,-247.037 136.215,0 247.038,110.818 247.038,247.037 C 247.038,-110.819 136.215,0 0,0 m 0,-496.679 c -137.656,0 -249.645,111.99 -249.645,249.645 0,137.652 111.989,249.641 249.645,249.641 137.655,0 249.644,-111.989 249.644,-249.641 0,-137.655 -111.989,-249.645 -249.644,-249.645" />
          </g>
          <g
             id="g3805">
            <g
               id="g3807" />
            <g
               id="g4139">
              <g
                 style="opacity:0.80000299"
                 id="g4137"
                 clip-path="url(#clipPath3811)">
                <g
                   id="g3815"
                   transform="translate(900.7534,997.1035)">
                  <path
                     inkscape:connector-curvature="0"
                     id="path3813"
                     style="fill:#b6e1ea;fill-opacity:1;fill-rule:nonzero;stroke:none"
                     d="m 0,0 c -56.123,-0.017 -108.821,-21.778 -148.454,-61.278 -39.625,-39.504 -61.44,-92.013 -61.426,-147.863 0.034,-115.251 94.186,-209.014 209.883,-209.014 v -0.654 l 0.054,0.654 c 56.066,0.012 108.769,21.778 148.4,61.277 39.628,39.505 61.444,92.013 61.424,147.859 C 209.85,-93.764 115.702,0 0,0 M 0.057,-419.461 H 0.003 c -116.418,0 -211.155,94.349 -211.185,210.32 -0.017,56.198 21.934,109.038 61.809,148.785 39.875,39.747 92.902,61.644 149.312,61.661 116.478,0 211.217,-94.352 211.247,-210.324 0.017,-56.194 -21.935,-109.034 -61.812,-148.781 C 109.5,-397.547 56.471,-419.444 0.057,-419.461" />
                </g>
                <g
                   id="g3819"
                   transform="translate(890.2935,997.5259)">
                  <path
                     inkscape:connector-curvature="0"
                     id="path3817"
                     style="fill:#b6e1ea;fill-opacity:1;fill-rule:nonzero;stroke:none"
                     d="m 0,0 -0.003,28.885 23.479,0.007 0.01,-28.889 H 22.184 L 22.171,27.59 1.302,27.58 1.305,0 Z" />
                </g>
                <g
                   id="g3823"
                   transform="translate(889.083,549.4072)">
                  <path
                     inkscape:connector-curvature="0"
                     id="path3821"
                     style="fill:#b6e1ea;fill-opacity:1;fill-rule:nonzero;stroke:none"
                     d="M 0,0 -0.006,28.888 H 1.299 L 1.306,1.306 22.178,1.309 22.164,28.888 H 23.47 L 23.479,0.003 Z" />
                </g>
                <g
                   id="g3827"
                   transform="translate(946.542,993.0298)">
                  <path
                     inkscape:connector-curvature="0"
                     id="path3825"
                     style="fill:#b6e1ea;fill-opacity:1;fill-rule:nonzero;stroke:none"
                     d="m 0,0 -1.288,0.203 4.324,27.241 -20.62,3.246 -4.319,-27.245 -1.289,0.203 4.524,28.533 23.197,-3.651 z" />
                </g>
                <g
                   id="g3831"
                   transform="translate(870.5205,522.5371)">
                  <path
                     inkscape:connector-curvature="0"
                     id="path3829"
                     style="fill:#b6e1ea;fill-opacity:1;fill-rule:nonzero;stroke:none"
                     d="m 0,0 -23.192,3.648 8.982,56.611 1.285,-0.203 -8.777,-55.323 20.616,-3.245 8.779,55.315 1.289,-0.202 z" />
                </g>
                <g
                   id="g3835"
                   transform="translate(978.1914,983.4687)">
                  <path
                     inkscape:connector-curvature="0"
                     id="path3833"
                     style="fill:#b6e1ea;fill-opacity:1;fill-rule:nonzero;stroke:none"
                     d="M 0,0 -1.236,0.403 16.458,54.693 -3.396,61.107 -21.084,6.826 -22.326,7.228 -4.235,62.746 18.101,55.532 Z" />
                </g>
                <g
                   id="g3839"
                   transform="translate(820.4043,503.5488)">
                  <path
                     inkscape:connector-curvature="0"
                     id="path3837"
                     style="fill:#b6e1ea;fill-opacity:1;fill-rule:nonzero;stroke:none"
                     d="M 0,0 -22.336,7.217 4.25,88.804 5.487,88.398 -20.69,8.056 -0.839,1.64 25.342,81.984 26.583,81.579 Z" />
                </g>
                <g
                   id="g3843"
                   transform="translate(1007.9629,969.0977)">
                  <path
                     inkscape:connector-curvature="0"
                     id="path3841"
                     style="fill:#b6e1ea;fill-opacity:1;fill-rule:nonzero;stroke:none"
                     d="M 0,0 -1.163,0.595 11.402,25.173 -7.201,34.602 -19.761,10.024 -20.92,10.615 -7.772,36.353 13.16,25.745 Z" />
                </g>
                <g
                   id="g3847"
                   transform="translate(1035.1025,950.2666)">
                  <path
                     inkscape:connector-curvature="0"
                     id="path3845"
                     style="fill:#b6e1ea;fill-opacity:1;fill-rule:nonzero;stroke:none"
                     d="M 0,0 -1.055,0.768 48.331,68.517 31.441,80.731 -17.938,12.982 -18.989,13.75 31.153,82.551 50.156,68.805 49.771,68.278 Z" />
                </g>
                <g
                   id="g3851"
                   transform="translate(752.7158,565.1172)">
                  <path
                     inkscape:connector-curvature="0"
                     id="path3849"
                     style="fill:#b6e1ea;fill-opacity:1;fill-rule:nonzero;stroke:none"
                     d="M 0,0 -19.003,13.746 15.034,60.444 16.086,59.676 -17.177,14.037 -0.287,1.815 32.982,47.462 34.034,46.694 Z" />
                </g>
                <g
                   id="g3855"
                   transform="translate(1058.9531,927.4375)">
                  <path
                     inkscape:connector-curvature="0"
                     id="path3853"
                     style="fill:#b6e1ea;fill-opacity:1;fill-rule:nonzero;stroke:none"
                     d="m 0,0 -0.92,0.923 39.725,39.591 -14.768,14.693 -39.72,-39.595 -0.92,0.923 40.64,40.511 16.616,-16.532 -0.466,-0.463 z" />
                </g>
                <g
                   id="g3859"
                   transform="translate(740.0117,611.4199)">
                  <path
                     inkscape:connector-curvature="0"
                     id="path3857"
                     style="fill:#b6e1ea;fill-opacity:1;fill-rule:nonzero;stroke:none"
                     d="M 0,0 -16.609,16.538 3.888,36.968 4.811,36.045 -14.764,16.538 0,1.843 19.574,21.356 20.497,20.43 Z" />
                </g>
                <g
                   id="g3863"
                   transform="translate(1078.9268,901.1689)">
                  <path
                     inkscape:connector-curvature="0"
                     id="path3861"
                     style="fill:#b6e1ea;fill-opacity:1;fill-rule:nonzero;stroke:none"
                     d="M 0,0 -0.764,1.055 69.01,51.583 56.738,68.402 -13.043,17.868 -13.807,18.922 57.025,70.221 70.833,51.296 Z" />
                </g>
                <g
                   id="g3867"
                   transform="translate(669.1353,606.0547)">
                  <path
                     inkscape:connector-curvature="0"
                     id="path3865"
                     style="fill:#b6e1ea;fill-opacity:1;fill-rule:nonzero;stroke:none"
                     d="m 0,0 -13.807,18.922 0.531,0.385 68.074,49.297 0.764,-1.057 L -11.981,18.634 0.288,1.818 67.833,50.73 68.597,49.672 Z" />
                </g>
                <g
                   id="g3871"
                   transform="translate(1094.5293,872.1123)">
                  <path
                     inkscape:connector-curvature="0"
                     id="path3869"
                     style="fill:#b6e1ea;fill-opacity:1;fill-rule:nonzero;stroke:none"
                     d="m 0,0 -0.592,1.163 77.373,39.301 -9.486,18.519 -77.37,-39.304 -0.591,1.163 78.529,39.892 10.676,-20.838 z" />
                </g>
                <g
                   id="g3875"
                   transform="translate(693.165,669.7471)">
                  <path
                     inkscape:connector-curvature="0"
                     id="path3873"
                     style="fill:#b6e1ea;fill-opacity:1;fill-rule:nonzero;stroke:none"
                     d="M 0,0 -10.666,20.843 15.169,33.966 15.761,32.806 -8.908,20.271 0.568,1.751 25.24,14.286 25.829,13.123 Z" />
                </g>
                <g
                   id="g3879"
                   transform="translate(1105.3701,840.9858)">
                  <path
                     inkscape:connector-curvature="0"
                     id="path3877"
                     style="fill:#b6e1ea;fill-opacity:1;fill-rule:nonzero;stroke:none"
                     d="m 0,0 -0.402,1.241 26.332,8.53 -6.456,19.77 -26.333,-8.533 -0.402,1.238 27.57,8.935 7.264,-22.249 z" />
                </g>
                <g
                   id="g3883"
                   transform="translate(677.1743,703.6621)">
                  <path
                     inkscape:connector-curvature="0"
                     id="path3881"
                     style="fill:#b6e1ea;fill-opacity:1;fill-rule:nonzero;stroke:none"
                     d="M 0,0 -7.265,22.245 20.308,31.181 20.71,29.939 -5.619,21.407 0.835,1.64 27.167,10.169 27.57,8.928 Z" />
                </g>
                <g
                   id="g3887"
                   transform="translate(1111.1914,808.5518)">
                  <path
                     inkscape:connector-curvature="0"
                     id="path3885"
                     style="fill:#b6e1ea;fill-opacity:1;fill-rule:nonzero;stroke:none"
                     d="M 0,0 -0.201,1.284 27.145,5.608 23.876,26.139 -3.479,21.815 -3.681,23.104 24.957,27.63 28.639,4.523 Z" />
                </g>
                <g
                   id="g3891"
                   transform="translate(666.7046,739.6436)">
                  <path
                     inkscape:connector-curvature="0"
                     id="path3889"
                     style="fill:#b6e1ea;fill-opacity:1;fill-rule:nonzero;stroke:none"
                     d="m 0,0 -3.679,23.109 28.638,4.524 0.203,-1.287 -27.35,-4.322 3.27,-20.534 27.35,4.324 0.202,-1.288 z" />
                </g>
                <g
                   id="g3895"
                   transform="translate(1111.8584,775.6035)">
                  <path
                     inkscape:connector-curvature="0"
                     id="path3893"
                     style="fill:#b6e1ea;fill-opacity:1;fill-rule:nonzero;stroke:none"
                     d="m 0,0 v 1.306 l 59.824,0.016 -0.01,20.791 -59.831,-0.021 v 1.305 L 61.12,23.414 61.126,0.02 Z" />
                </g>
                <g
                   id="g3899"
                   transform="translate(662.0151,776.8174)">
                  <path
                     inkscape:connector-curvature="0"
                     id="path3897"
                     style="fill:#b6e1ea;fill-opacity:1;fill-rule:nonzero;stroke:none"
                     d="M 0,0 -0.006,23.397 28.99,23.404 V 22.099 L 1.295,22.092 1.305,1.305 28.993,1.312 V 0.007 Z" />
                </g>
                <g
                   id="g3903"
                   transform="translate(1193.0527,729.46)">
                  <path
                     inkscape:connector-curvature="0"
                     id="path3901"
                     style="fill:#b6e1ea;fill-opacity:1;fill-rule:nonzero;stroke:none"
                     d="m 0,0 -0.643,0.102 -85.069,13.401 0.206,1.288 84.42,-13.3 3.263,20.534 -84.443,13.3 0.206,1.287 85.727,-13.501 z" />
                </g>
                <g
                   id="g3907"
                   transform="translate(691.8569,809.752)">
                  <path
                     inkscape:connector-curvature="0"
                     id="path3905"
                     style="fill:#b6e1ea;fill-opacity:1;fill-rule:nonzero;stroke:none"
                     d="M 0,0 -28.638,4.506 -24.97,27.617 3.668,23.107 3.465,21.819 -23.885,26.126 -27.144,5.592 0.203,1.288 Z" />
                </g>
                <g
                   id="g3911"
                   transform="translate(1125.3135,702.5166)">
                  <path
                     inkscape:connector-curvature="0"
                     id="path3909"
                     style="fill:#b6e1ea;fill-opacity:1;fill-rule:nonzero;stroke:none"
                     d="m 0,0 -27.573,8.914 0.398,1.238 26.34,-8.512 6.437,19.769 -26.336,8.521 0.403,1.236 27.579,-8.918 z" />
                </g>
                <g
                   id="g3915"
                   transform="translate(697.8672,842.1387)">
                  <path
                     inkscape:connector-curvature="0"
                     id="path3913"
                     style="fill:#b6e1ea;fill-opacity:1;fill-rule:nonzero;stroke:none"
                     d="M 0,0 -27.576,8.922 -20.325,31.174 7.252,22.252 6.85,21.011 -19.489,29.535 -25.933,9.76 0.403,1.241 Z" />
                </g>
                <g
                   id="g3919"
                   transform="translate(1132.9102,656.623)">
                  <path
                     inkscape:connector-curvature="0"
                     id="path3917"
                     style="fill:#b6e1ea;fill-opacity:1;fill-rule:nonzero;stroke:none"
                     d="m 0,0 -49.596,25.156 0.593,1.163 48.432,-24.568 9.462,18.526 -48.432,24.569 0.592,1.166 49.597,-25.166 z" />
                </g>
                <g
                   id="g3923"
                   transform="translate(708.8887,873.1943)">
                  <path
                     inkscape:connector-curvature="0"
                     id="path3921"
                     style="fill:#b6e1ea;fill-opacity:1;fill-rule:nonzero;stroke:none"
                     d="M 0,0 -25.839,13.107 -15.183,33.956 10.656,20.848 10.067,19.685 -14.615,32.204 -24.081,13.678 0.592,1.163 Z" />
                </g>
                <g
                   id="g3927"
                   transform="translate(1087.8613,637.7725)">
                  <path
                     inkscape:connector-curvature="0"
                     id="path3925"
                     style="fill:#b6e1ea;fill-opacity:1;fill-rule:nonzero;stroke:none"
                     d="m 0,0 -23.455,16.967 0.765,1.059 22.403,-16.208 12.266,16.823 -22.405,16.207 0.764,1.054 23.463,-16.97 z" />
                </g>
                <g
                   id="g3931"
                   transform="translate(724.6528,902.1499)">
                  <path
                     inkscape:connector-curvature="0"
                     id="path3929"
                     style="fill:#b6e1ea;fill-opacity:1;fill-rule:nonzero;stroke:none"
                     d="m 0,0 -44.767,32.383 13.8,18.926 L 13.793,18.932 13.029,17.877 -30.68,49.49 -42.942,32.671 0.764,1.055 Z" />
                </g>
                <g
                   id="g3935"
                   transform="translate(1084.6572,588.001)">
                  <path
                     inkscape:connector-curvature="0"
                     id="path3933"
                     style="fill:#b6e1ea;fill-opacity:1;fill-rule:nonzero;stroke:none"
                     d="m 0,0 -43.165,42.983 0.92,0.922 L 0,1.84 l 14.746,14.716 -42.238,42.053 0.919,0.925 43.165,-42.978 z" />
                </g>
                <g
                   id="g3939"
                   transform="translate(744.7681,928.2959)">
                  <path
                     inkscape:connector-curvature="0"
                     id="path3937"
                     style="fill:#b6e1ea;fill-opacity:1;fill-rule:nonzero;stroke:none"
                     d="M 0,0 -60.761,60.494 -44.152,77.04 16.603,16.545 15.683,15.622 -44.152,75.201 -58.912,60.494 0.919,0.923 Z" />
                </g>
                <g
                   id="g3943"
                   transform="translate(1032.168,587.7275)">
                  <path
                     inkscape:connector-curvature="0"
                     id="path3941"
                     style="fill:#b6e1ea;fill-opacity:1;fill-rule:nonzero;stroke:none"
                     d="m 0,0 -17.041,23.361 1.055,0.767 L 0.288,1.819 17.168,14.047 0.889,36.35 1.94,37.12 18.992,13.76 Z" />
                </g>
                <g
                   id="g3947"
                   transform="translate(768.7402,950.9741)">
                  <path
                     inkscape:connector-curvature="0"
                     id="path3945"
                     style="fill:#b6e1ea;fill-opacity:1;fill-rule:nonzero;stroke:none"
                     d="M 0,0 -17.052,23.367 1.944,37.12 18.996,13.763 17.942,12.992 1.657,35.301 -15.227,23.077 1.052,0.767 Z" />
                </g>
                <g
                   id="g3951"
                   transform="translate(1026.1133,517.0811)">
                  <path
                     inkscape:connector-curvature="0"
                     id="path3949"
                     style="fill:#b6e1ea;fill-opacity:1;fill-rule:nonzero;stroke:none"
                     d="m 0,0 -40.159,78.47 1.163,0.592 39.564,-77.311 18.598,9.446 -39.568,77.299 1.159,0.595 40.166,-78.462 z" />
                </g>
                <g
                   id="g3955"
                   transform="translate(795.9795,969.6416)">
                  <path
                     inkscape:connector-curvature="0"
                     id="path3953"
                     style="fill:#b6e1ea;fill-opacity:1;fill-rule:nonzero;stroke:none"
                     d="M 0,0 -25.754,50.325 -4.835,60.944 20.919,10.63 19.76,10.034 -5.406,59.193 -24,49.758 1.163,0.596 Z" />
                </g>
                <g
                   id="g3959"
                   transform="translate(969.9258,538.1299)">
                  <path
                     inkscape:connector-curvature="0"
                     id="path3957"
                     style="fill:#b6e1ea;fill-opacity:1;fill-rule:nonzero;stroke:none"
                     d="m 0,0 -15.22,46.613 1.241,0.406 L 0.835,1.64 20.684,8.073 5.866,53.448 7.106,53.854 22.329,7.238 Z" />
                </g>
                <g
                   id="g3963"
                   transform="translate(825.8174,983.8408)">
                  <path
                     inkscape:connector-curvature="0"
                     id="path3961"
                     style="fill:#b6e1ea;fill-opacity:1;fill-rule:nonzero;stroke:none"
                     d="M 0,0 -8.966,27.472 13.364,34.704 22.33,7.238 21.091,6.833 12.528,33.06 -7.32,26.634 1.24,0.406 Z" />
                </g>
                <g
                   id="g3967"
                   transform="translate(935.7852,493.3018)">
                  <path
                     inkscape:connector-curvature="0"
                     id="path3965"
                     style="fill:#b6e1ea;fill-opacity:1;fill-rule:nonzero;stroke:none"
                     d="M 0,0 -0.102,0.643 -13.635,85.64 -12.347,85.843 1.081,1.491 21.7,4.753 8.265,89.104 9.554,89.311 23.19,3.668 Z" />
                </g>
                <g
                   id="g3971"
                   transform="translate(857.5142,993.2158)">
                  <path
                     inkscape:connector-curvature="0"
                     id="path3969"
                     style="fill:#b6e1ea;fill-opacity:1;fill-rule:nonzero;stroke:none"
                     d="M 0,0 -13.675,85.89 9.513,89.551 23.191,3.661 21.907,3.458 8.432,88.061 -12.184,84.805 1.289,0.203 Z" />
                </g>
                <g
                   id="g3975"
                   transform="translate(885.2129,966.5425)">
                  <path
                     inkscape:connector-curvature="0"
                     id="path3973"
                     style="fill:#b6e1ea;fill-opacity:1;fill-rule:nonzero;stroke:none"
                     d="m 0,0 -11.298,163.223 1.3,0.091 11.3,-163.227 z" />
                </g>
                <g
                   id="g3979"
                   transform="translate(925.1855,449.0723)">
                  <path
                     inkscape:connector-curvature="0"
                     id="path3977"
                     style="fill:#b6e1ea;fill-opacity:1;fill-rule:nonzero;stroke:none"
                     d="m 0,0 -11.298,163.224 1.302,0.087 L 1.303,0.092 Z" />
                </g>
                <g
                   id="g3983"
                   transform="translate(914.5029,966.5825)">
                  <path
                     inkscape:connector-curvature="0"
                     id="path3981"
                     style="fill:#b6e1ea;fill-opacity:1;fill-rule:nonzero;stroke:none"
                     d="m 0,0 -1.298,0.115 14.473,162.974 1.302,-0.115 z" />
                </g>
                <g
                   id="g3987"
                   transform="translate(872.7207,449.2539)">
                  <path
                     inkscape:connector-curvature="0"
                     id="path3985"
                     style="fill:#b6e1ea;fill-opacity:1;fill-rule:nonzero;stroke:none"
                     d="m 0,0 -1.298,0.115 14.476,162.973 1.298,-0.114 z" />
                </g>
                <g
                   id="g3991"
                   transform="translate(942.1396,962.1709)">
                  <path
                     inkscape:connector-curvature="0"
                     id="path3989"
                     style="fill:#b6e1ea;fill-opacity:1;fill-rule:nonzero;stroke:none"
                     d="m 0,0 -1.265,0.318 39.89,158.713 1.265,-0.318 z" />
                </g>
                <g
                   id="g3995"
                   transform="translate(819.6377,457.7236)">
                  <path
                     inkscape:connector-curvature="0"
                     id="path3993"
                     style="fill:#b6e1ea;fill-opacity:1;fill-rule:nonzero;stroke:none"
                     d="m 0,0 -1.265,0.317 39.885,158.717 1.265,-0.318 z" />
                </g>
                <g
                   id="g3999"
                   transform="translate(968.7461,953.5098)">
                  <path
                     inkscape:connector-curvature="0"
                     id="path3997"
                     style="fill:#b6e1ea;fill-opacity:1;fill-rule:nonzero;stroke:none"
                     d="m 0,0 -1.2,0.51 64.321,150.546 1.201,-0.514 z" />
                </g>
                <g
                   id="g4003"
                   transform="translate(768.5347,474.3633)">
                  <path
                     inkscape:connector-curvature="0"
                     id="path4001"
                     style="fill:#b6e1ea;fill-opacity:1;fill-rule:nonzero;stroke:none"
                     d="m 0,0 -1.2,0.511 64.321,150.545 1.2,-0.514 z" />
                </g>
                <g
                   id="g4007"
                   transform="translate(993.6621,940.8076)">
                  <path
                     inkscape:connector-curvature="0"
                     id="path4005"
                     style="fill:#b6e1ea;fill-opacity:1;fill-rule:nonzero;stroke:none"
                     d="m 0,0 -1.103,0.693 87.171,138.667 1.103,-0.693 z" />
                </g>
                <g
                   id="g4011"
                   transform="translate(720.6738,498.7617)">
                  <path
                     inkscape:connector-curvature="0"
                     id="path4009"
                     style="fill:#b6e1ea;fill-opacity:1;fill-rule:nonzero;stroke:none"
                     d="m 0,0 -1.105,0.692 87.167,138.667 1.106,-0.693 z" />
                </g>
                <g
                   id="g4015"
                   transform="translate(1016.2754,924.3779)">
                  <path
                     inkscape:connector-curvature="0"
                     id="path4013"
                     style="fill:#b6e1ea;fill-opacity:1;fill-rule:nonzero;stroke:none"
                     d="m 0,0 -0.98,0.858 107.875,123.375 0.98,-0.858 z" />
                </g>
                <g
                   id="g4019"
                   transform="translate(677.2314,530.3125)">
                  <path
                     inkscape:connector-curvature="0"
                     id="path4017"
                     style="fill:#b6e1ea;fill-opacity:1;fill-rule:nonzero;stroke:none"
                     d="m 0,0 -0.979,0.859 107.871,123.375 0.98,-0.854 z" />
                </g>
                <g
                   id="g4023"
                   transform="translate(1036.0361,904.6279)">
                  <path
                     inkscape:connector-curvature="0"
                     id="path4021"
                     style="fill:#b6e1ea;fill-opacity:1;fill-rule:nonzero;stroke:none"
                     d="m 0,0 -0.835,1.001 125.92,105.044 0.832,-1 z" />
                </g>
                <g
                   id="g4027"
                   transform="translate(639.2837,568.251)">
                  <path
                     inkscape:connector-curvature="0"
                     id="path4025"
                     style="fill:#b6e1ea;fill-opacity:1;fill-rule:nonzero;stroke:none"
                     d="m 0,0 -0.835,1.001 125.918,105.049 0.834,-1.001 z" />
                </g>
                <g
                   id="g4031"
                   transform="translate(1052.4492,882.0444)">
                  <path
                     inkscape:connector-curvature="0"
                     id="path4029"
                     style="fill:#b6e1ea;fill-opacity:1;fill-rule:nonzero;stroke:none"
                     d="m 0,0 -0.67,1.119 140.863,84.129 0.674,-1.119 z" />
                </g>
                <g
                   id="g4035"
                   transform="translate(607.7588,611.6357)">
                  <path
                     inkscape:connector-curvature="0"
                     id="path4033"
                     style="fill:#b6e1ea;fill-opacity:1;fill-rule:nonzero;stroke:none"
                     d="m 0,0 -0.666,1.119 140.86,84.133 0.669,-1.124 z" />
                </g>
                <g
                   id="g4039"
                   transform="translate(1065.1133,857.1797)">
                  <path
                     inkscape:connector-curvature="0"
                     id="path4037"
                     style="fill:#b6e1ea;fill-opacity:1;fill-rule:nonzero;stroke:none"
                     d="m 0,0 -0.487,1.21 152.341,61.14 0.487,-1.21 z" />
                </g>
                <g
                   id="g4043"
                   transform="translate(583.4341,659.3984)">
                  <path
                     inkscape:connector-curvature="0"
                     id="path4041"
                     style="fill:#b6e1ea;fill-opacity:1;fill-rule:nonzero;stroke:none"
                     d="m 0,0 -0.483,1.206 152.337,61.148 0.487,-1.21 z" />
                </g>
                <g
                   id="g4047"
                   transform="translate(1073.7168,830.644)">
                  <path
                     inkscape:connector-curvature="0"
                     id="path4045"
                     style="fill:#b6e1ea;fill-opacity:1;fill-rule:nonzero;stroke:none"
                     d="m 0,0 -0.291,1.271 160.07,36.648 0.286,-1.271 z" />
                </g>
                <g
                   id="g4051"
                   transform="translate(566.9126,710.3623)">
                  <path
                     inkscape:connector-curvature="0"
                     id="path4049"
                     style="fill:#b6e1ea;fill-opacity:1;fill-rule:nonzero;stroke:none"
                     d="m 0,0 -0.294,1.271 160.066,36.655 0.294,-1.272 z" />
                </g>
                <g
                   id="g4055"
                   transform="translate(1078.0479,803.0991)">
                  <path
                     inkscape:connector-curvature="0"
                     id="path4053"
                     style="fill:#b6e1ea;fill-opacity:1;fill-rule:nonzero;stroke:none"
                     d="m 0,0 -0.088,1.301 163.853,11.252 0.087,-1.303 z" />
                </g>
                <g
                   id="g4059"
                   transform="translate(558.5928,763.2783)">
                  <path
                     inkscape:connector-curvature="0"
                     id="path4057"
                     style="fill:#b6e1ea;fill-opacity:1;fill-rule:nonzero;stroke:none"
                     d="m 0,0 -0.087,1.301 163.848,11.254 0.092,-1.298 z" />
                </g>
                <g
                   id="g4063"
                   transform="translate(1241.6035,760.7959)">
                  <path
                     inkscape:connector-curvature="0"
                     id="path4061"
                     style="fill:#b6e1ea;fill-opacity:1;fill-rule:nonzero;stroke:none"
                     d="m 0,0 -163.603,14.418 0.115,1.299 L 0.114,1.298 Z" />
                </g>
                <g
                   id="g4067"
                   transform="translate(722.29,802.4194)">
                  <path
                     inkscape:connector-curvature="0"
                     id="path4065"
                     style="fill:#b6e1ea;fill-opacity:1;fill-rule:nonzero;stroke:none"
                     d="m 0,0 -163.602,14.415 0.115,1.297 L 0.115,1.298 Z" />
                </g>
                <g
                   id="g4071"
                   transform="translate(1232.8975,707.9453)">
                  <path
                     inkscape:connector-curvature="0"
                     id="path4069"
                     style="fill:#b6e1ea;fill-opacity:1;fill-rule:nonzero;stroke:none"
                     d="m 0,0 -159.322,39.736 0.314,1.269 L 0.317,1.264 Z" />
                </g>
                <g
                   id="g4075"
                   transform="translate(726.5161,829.9854)">
                  <path
                     inkscape:connector-curvature="0"
                     id="path4073"
                     style="fill:#b6e1ea;fill-opacity:1;fill-rule:nonzero;stroke:none"
                     d="m 0,0 -159.323,39.73 0.315,1.268 L 0.314,1.265 Z" />
                </g>
                <g
                   id="g4079"
                   transform="translate(1216.001,657.1025)">
                  <path
                     inkscape:connector-curvature="0"
                     id="path4077"
                     style="fill:#b6e1ea;fill-opacity:1;fill-rule:nonzero;stroke:none"
                     d="m 0,0 -151.121,64.078 0.508,1.197 L 0.51,1.2 Z" />
                </g>
                <g
                   id="g4083"
                   transform="translate(735.0151,856.5537)">
                  <path
                     inkscape:connector-curvature="0"
                     id="path4081"
                     style="fill:#b6e1ea;fill-opacity:1;fill-rule:nonzero;stroke:none"
                     d="m 0,0 -151.122,64.072 0.512,1.2 L 0.51,1.201 Z" />
                </g>
                <g
                   id="g4087"
                   transform="translate(1191.3281,609.5166)">
                  <path
                     inkscape:connector-curvature="0"
                     id="path4085"
                     style="fill:#b6e1ea;fill-opacity:1;fill-rule:nonzero;stroke:none"
                     d="m 0,0 -139.196,86.84 0.689,1.105 L 0.689,1.105 Z" />
                </g>
                <g
                   id="g4091"
                   transform="translate(747.5879,881.4697)">
                  <path
                     inkscape:connector-curvature="0"
                     id="path4089"
                     style="fill:#b6e1ea;fill-opacity:1;fill-rule:nonzero;stroke:none"
                     d="m 0,0 -139.201,86.83 0.69,1.106 139.2,-86.831 z" />
                </g>
                <g
                   id="g4095"
                   transform="translate(1159.4883,566.3652)">
                  <path
                     inkscape:connector-curvature="0"
                     id="path4093"
                     style="fill:#b6e1ea;fill-opacity:1;fill-rule:nonzero;stroke:none"
                     d="m 0,0 -123.852,107.462 0.859,0.987 L 0.855,0.983 Z" />
                </g>
                <g
                   id="g4099"
                   transform="translate(763.9126,904.1206)">
                  <path
                     inkscape:connector-curvature="0"
                     id="path4097"
                     style="fill:#b6e1ea;fill-opacity:1;fill-rule:nonzero;stroke:none"
                     d="m 0,0 -123.849,107.456 0.856,0.983 L 0.856,0.984 Z" />
                </g>
                <g
                   id="g4103"
                   transform="translate(1121.2627,528.7041)">
                  <path
                     inkscape:connector-curvature="0"
                     id="path4101"
                     style="fill:#b6e1ea;fill-opacity:1;fill-rule:nonzero;stroke:none"
                     d="m 0,0 -105.45,125.44 1.001,0.839 L 0.998,0.839 Z" />
                </g>
                <g
                   id="g4107"
                   transform="translate(783.5952,923.9487)">
                  <path
                     inkscape:connector-curvature="0"
                     id="path4105"
                     style="fill:#b6e1ea;fill-opacity:1;fill-rule:nonzero;stroke:none"
                     d="m 0,0 -105.447,125.431 0.997,0.839 L 0.998,0.838 Z" />
                </g>
                <g
                   id="g4111"
                   transform="translate(1077.5918,497.4658)">
                  <path
                     inkscape:connector-curvature="0"
                     id="path4109"
                     style="fill:#b6e1ea;fill-opacity:1;fill-rule:nonzero;stroke:none"
                     d="m 0,0 -84.451,140.331 1.119,0.672 84.45,-140.33 z" />
                </g>
                <g
                   id="g4115"
                   transform="translate(806.1514,940.4634)">
                  <path
                     inkscape:connector-curvature="0"
                     id="path4113"
                     style="fill:#b6e1ea;fill-opacity:1;fill-rule:nonzero;stroke:none"
                     d="m 0,0 -84.453,140.319 1.116,0.673 L 1.115,0.673 Z" />
                </g>
                <g
                   id="g4119"
                   transform="translate(1029.5586,473.416)">
                  <path
                     inkscape:connector-curvature="0"
                     id="path4117"
                     style="fill:#b6e1ea;fill-opacity:1;fill-rule:nonzero;stroke:none"
                     d="m 0,0 -61.377,151.763 1.21,0.491 L 1.207,0.49 Z" />
                </g>
                <g
                   id="g4123"
                   transform="translate(831.0229,953.2627)">
                  <path
                     inkscape:connector-curvature="0"
                     id="path4121"
                     style="fill:#b6e1ea;fill-opacity:1;fill-rule:nonzero;stroke:none"
                     d="m 0,0 -61.379,151.752 1.206,0.488 L 1.207,0.486 Z" />
                </g>
                <g
                   id="g4127"
                   transform="translate(978.334,457.1484)">
                  <path
                     inkscape:connector-curvature="0"
                     id="path4125"
                     style="fill:#b6e1ea;fill-opacity:1;fill-rule:nonzero;stroke:none"
                     d="m 0,0 -36.789,159.46 1.271,0.295 L 1.271,0.294 Z" />
                </g>
                <g
                   id="g4131"
                   transform="translate(857.5957,962.0283)">
                  <path
                     inkscape:connector-curvature="0"
                     id="path4129"
                     style="fill:#b6e1ea;fill-opacity:1;fill-rule:nonzero;stroke:none"
                     d="m 0,0 -36.792,159.448 1.271,0.294 L 1.271,0.292 Z" />
                </g>
                <g
                   id="g4135"
                   transform="translate(900.3994,966.8701)">
                  <path
                     inkscape:connector-curvature="0"
                     id="path4133"
                     style="fill:#b6e1ea;fill-opacity:1;fill-rule:nonzero;stroke:none"
                     d="m 0,0 c -47.763,-0.014 -92.612,-18.533 -126.337,-52.151 -33.723,-33.615 -52.29,-78.3 -52.277,-125.83 0.028,-98.083 80.153,-177.882 178.617,-177.882 v -0.652 l 0.046,0.652 c 47.713,0.017 92.561,18.536 126.288,52.154 33.727,33.618 52.292,78.304 52.275,125.834 C 178.588,-79.795 98.463,0 0,0 M 0.049,-357.165 H 0.003 c -99.183,0 -179.894,80.38 -179.921,179.184 -0.014,47.878 18.689,92.892 52.661,126.756 33.973,33.862 79.145,52.516 127.206,52.53 99.23,0 179.941,-80.38 179.967,-179.18 0.018,-47.878 -18.684,-92.893 -52.657,-126.757 C 93.287,-338.493 48.11,-357.15 0.049,-357.165" />
                </g>
              </g>
            </g>
          </g>
          <g
             transform="translate(325.1963,668.7598)"
             id="g4141">
            <path
               inkscape:connector-curvature="0"
               id="path4143"
               style="fill:#f7911d;fill-opacity:1;fill-rule:nonzero;stroke:none"
               d="m 0,0 c -17.001,-6.103 -52.266,-23.138 -91.935,-23.138 -44.466,0 -76.823,5.451 -105.596,32.914 -25.284,24.413 -43.547,63.44 -43.547,109.214 0,83.832 57.672,141.733 144.255,141.733 59.314,0 78.431,-23.029 92.228,-36.826 L -24.148,205.32 c -32.154,27.266 -45.626,30.744 -73.328,31.288 -77.009,1.512 -118.632,-51.819 -118.632,-116.999 0,-74.547 50.518,-118.957 122.215,-119.285 24.849,-0.111 53.777,5.869 68.115,14.993 l 0.328,91.906 h -64.206 v 20.919 H 0 Z" />
          </g>
          <g
             transform="translate(1300.4941,897.1294)"
             id="g4145">
            <path
               inkscape:connector-curvature="0"
               id="path4147"
               style="fill:#f7911d;fill-opacity:1;fill-rule:nonzero;stroke:none"
               d="m 0,0 -21.291,-16.298 c -6.735,9.128 -12.848,16.248 -23.902,19.993 -11.054,3.743 -18.1,4.777 -29.331,4.777 -17.089,0 -33.753,-5.818 -43.672,-14.121 -9.919,-8.303 -16.512,-21.309 -16.512,-35.416 0,-12.36 3.479,-24.578 9.994,-31.069 6.515,-6.495 17.276,-13.689 35.103,-19.341 l 24.948,-8.715 c 24.314,-7.512 37.983,-10.762 49.457,-23.871 11.47,-13.111 19.117,-25.64 19.117,-48.236 0,-26.59 -5.736,-44.247 -21.511,-58.227 -15.774,-13.985 -35.064,-22.162 -65.179,-22.162 -18.903,0 -30.636,1.519 -43.565,7.277 -12.802,5.706 -33.35,24.662 -39.868,33.571 l 22.814,16.079 c 9.124,-11.515 13.363,-19.555 24.225,-24.772 11.687,-5.608 22.009,-7.601 34.44,-7.601 18.282,0 35.466,4.698 45.625,13.251 10.156,8.55 17.384,24.622 17.384,39.977 0,13.983 -8.076,25.535 -15.88,32.039 -8.224,6.856 -16.075,10.656 -32.995,16.197 l -24.379,8.357 c -24.026,8.154 -35.885,13.892 -47.116,25.751 -11.234,11.862 -18.684,26.086 -18.684,46.065 0,24.967 5.872,43.182 21.943,58.226 16.072,15.044 35.413,21.512 62.064,21.512 10.277,0 22.66,0.166 35.057,-3.692 C -22.16,23.465 -8.255,10.43 0,0" />
          </g>
          <g
             transform="translate(1716.7871,897.998)"
             id="g4149">
            <path
               inkscape:connector-curvature="0"
               id="path4151"
               style="fill:#f7911d;fill-opacity:1;fill-rule:nonzero;stroke:none"
               d="m 0,0 -21.292,-16.298 c -6.733,9.128 -12.847,16.244 -23.901,19.989 -11.055,3.746 -18.1,4.782 -29.331,4.782 -17.09,0 -33.752,-5.822 -43.671,-14.122 -9.92,-8.306 -16.512,-21.308 -16.512,-35.416 0,-12.36 3.478,-24.581 9.992,-31.069 6.513,-6.494 17.276,-13.688 35.103,-19.342 l 24.95,-8.713 c 24.313,-7.513 37.981,-10.765 49.452,-23.873 11.475,-13.11 19.122,-25.638 19.122,-48.235 0,-26.59 -5.737,-44.248 -21.512,-58.229 -15.775,-13.983 -35.064,-22.161 -65.18,-22.161 -18.906,0 -30.636,1.522 -43.564,7.279 -12.802,5.703 -33.349,24.662 -39.868,33.57 l 22.813,16.075 c 9.125,-11.514 13.36,-19.553 24.225,-24.766 11.689,-5.609 22.006,-7.604 34.436,-7.604 18.287,0 35.47,4.696 45.631,13.252 10.155,8.55 17.379,24.623 17.379,39.977 0,13.983 -8.073,25.535 -15.876,32.036 -8.229,6.856 -16.078,10.659 -32.999,16.2 l -24.375,8.357 c -24.03,8.155 -35.885,13.888 -47.116,25.751 -11.238,11.863 -18.685,26.085 -18.685,46.062 0,24.97 5.868,43.185 21.944,58.229 16.071,15.044 35.412,21.508 62.063,21.508 10.277,0 22.661,0.169 35.057,-3.692 C -22.16,23.462 -8.256,10.427 0,0" />
          </g>
          <g
             transform="translate(563.7383,923.418)"
             id="g4153">
            <path
               inkscape:connector-curvature="0"
               id="path4155"
               style="fill:#f7911d;fill-opacity:1;fill-rule:nonzero;stroke:none"
               d="M 0,0 H -162.963 V -271.152 H 5.206 v 23.032 h -143.398 v 106.894 h 127.753 v 22.162 h -127.753 v 96.903 H -0.01 Z" />
          </g>
          <g
             transform="translate(627.397,653.4795)"
             id="g4157">
            <path
               inkscape:connector-curvature="0"
               id="path4159"
               style="fill:#f7911d;fill-opacity:1;fill-rule:nonzero;stroke:none"
               d="M 0,0 -0.007,266.189 H 31.062 L 196.841,33.272 v 235.74 h 24.335 V 0.033 H 187.717 L 21.501,235.986 22.154,0.033 Z" />
          </g>
          <g
             transform="translate(1086.9258,923.2725)"
             id="g4161">
            <path
               inkscape:connector-curvature="0"
               id="path4163"
               style="fill:#f7911d;fill-opacity:1;fill-rule:nonzero;stroke:none"
               d="M 0,0 H -162.96 V -271.152 H 5.205 v 23.029 h -143.398 v 106.897 h 127.756 v 22.164 h -127.756 v 96.901 H -0.007 Z" />
          </g>
          <g
             transform="translate(1324.1768,922.8398)"
             id="g4165">
            <path
               inkscape:connector-curvature="0"
               id="path4167"
               style="fill:#f7911d;fill-opacity:1;fill-rule:nonzero;stroke:none"
               d="M 0,0 H 29.55 L 110.81,-126.453 193.809,0 h 27.373 L 122.543,-153.829 V -269.416 H 97.665 l 0.107,115.154 z" />
          </g>
          <g
             transform="translate(902.4072,1163.6875)"
             id="g4169">
            <path
               inkscape:connector-curvature="0"
               id="path4171"
               style="fill:#f7911d;fill-opacity:1;fill-rule:nonzero;stroke:none"
               d="m 0,0 c -66.769,0 -132.352,-17.738 -189.648,-51.299 -54.091,-31.684 -99.676,-76.647 -132.117,-130.258 h -548.059 -9.125 v -9.125 -370.329 -9.125 h 9.125 548.059 c 32.441,-53.61 78.026,-98.574 132.117,-130.254 57.296,-33.564 122.879,-51.301 189.648,-51.301 66.771,0 132.351,17.737 189.646,51.301 54.091,31.68 99.677,76.644 132.122,130.254 h 548.055 9.125 v 9.125 370.329 9.125 H 869.823 321.768 C 289.323,-127.946 243.737,-82.983 189.646,-51.299 132.351,-17.738 66.771,0 0,0 m 0,-9.125 c 134.987,0 252.916,-72.945 316.578,-181.557 H 869.823 V -561.011 H 316.578 C 252.916,-669.622 134.987,-742.567 0,-742.567 c -134.985,0 -252.917,72.945 -316.579,181.556 h -553.245 v 370.329 h 553.245 C -252.917,-82.07 -134.985,-9.125 0,-9.125" />
          </g>
          <g
             transform="translate(693.7773,699.2168)"
             id="g4173">
            <path
               inkscape:connector-curvature="0"
               id="path4175"
               style="fill:#f7911d;fill-opacity:1;fill-rule:nonzero;stroke:none"
               d="m 0,0 c -1.603,0.504 -3.269,0.808 -4.956,0.905 l 0.074,1.302 C -3.087,2.103 -1.315,1.778 0.392,1.241 Z m -13.618,-0.474 -0.48,1.21 c 1.663,0.66 3.411,1.106 5.193,1.332 L -8.74,0.774 c -1.673,-0.21 -3.316,-0.632 -4.878,-1.248 M 7.596,-4.382 c -1.247,1.137 -2.63,2.116 -4.111,2.911 l 0.616,1.15 C 5.676,-1.166 7.15,-2.208 8.475,-3.422 Z m -28.489,-0.997 -0.943,0.9 c 1.237,1.297 2.633,2.44 4.148,3.394 l 0.696,-1.103 c -1.423,-0.898 -2.735,-1.971 -3.901,-3.191 m 33.55,-6.167 c -0.653,1.548 -1.498,3.016 -2.511,4.365 l 1.037,0.785 c 1.082,-1.434 1.984,-2.996 2.674,-4.645 z m -38.1,-1.331 -1.234,0.419 c 0.574,1.69 1.365,3.316 2.343,4.823 l 1.095,-0.709 c -0.923,-1.42 -1.663,-2.945 -2.204,-4.533 m -2.262,-8.854 c -0.081,0.753 -0.122,1.524 -0.122,2.289 0,1.027 0.075,2.062 0.217,3.069 l 1.291,-0.183 c -0.136,-0.949 -0.202,-1.92 -0.202,-2.886 0,-0.717 0.036,-1.442 0.111,-2.154 z m 42.594,-3.03 -1.265,0.319 c 0.409,1.626 0.619,3.309 0.619,5 0,1.446 -0.153,2.89 -0.453,4.286 l 1.277,0.273 c 0.318,-1.486 0.48,-3.021 0.48,-4.559 0,-1.799 -0.223,-3.587 -0.658,-5.319 m -39.636,-5.824 c -0.926,1.541 -1.653,3.19 -2.167,4.904 l 1.247,0.376 c 0.483,-1.609 1.167,-3.161 2.036,-4.608 z m 35.45,-2.519 -1.015,0.821 c 1.066,1.311 1.965,2.75 2.672,4.274 l 1.182,-0.548 c -0.753,-1.623 -1.707,-3.155 -2.839,-4.547 m -29.047,-4.267 c -1.478,1.008 -2.83,2.201 -4.023,3.54 l 0.977,0.868 c 1.119,-1.26 2.39,-2.383 3.783,-3.33 z m 21.748,-1.548 -0.575,1.173 c 1.508,0.737 2.928,1.667 4.213,2.759 l 0.845,-0.994 c -1.369,-1.164 -2.877,-2.15 -4.483,-2.938 m -13.08,-1.92 c -1.775,0.29 -3.506,0.802 -5.145,1.521 l 0.524,1.194 c 1.538,-0.677 3.164,-1.156 4.831,-1.431 z m 4.013,-0.281 -0.027,1.302 c 1.69,0.037 3.367,0.28 4.983,0.727 l 0.349,-1.258 c -1.722,-0.473 -3.506,-0.733 -5.305,-0.771" />
          </g>
          <g
             transform="translate(1048.9492,615.043)"
             id="g4177">
            <path
               inkscape:connector-curvature="0"
               id="path4179"
               style="fill:#f7911d;fill-opacity:1;fill-rule:nonzero;stroke:none"
               d="m 0,0 c -1.602,0.504 -3.272,0.809 -4.956,0.907 l 0.075,1.302 c 1.792,-0.105 3.567,-0.43 5.275,-0.968 z m -13.62,-0.477 -0.478,1.214 c 1.668,0.659 3.415,1.106 5.195,1.333 L -8.741,0.774 C -10.412,0.565 -12.052,0.143 -13.62,-0.477 M 7.597,-4.38 C 6.35,-3.241 4.963,-2.261 3.482,-1.47 l 0.62,1.15 c 1.575,-0.845 3.045,-1.887 4.375,-3.097 z m -28.489,-0.998 -0.943,0.899 c 1.24,1.298 2.634,2.441 4.148,3.395 l 0.693,-1.103 c -1.419,-0.896 -2.732,-1.97 -3.898,-3.191 m 33.55,-6.166 c -0.652,1.551 -1.497,3.019 -2.512,4.363 l 1.042,0.786 c 1.079,-1.431 1.978,-2.992 2.673,-4.643 z m -38.101,-1.337 -1.234,0.424 c 0.575,1.69 1.366,3.312 2.346,4.821 l 1.093,-0.71 c -0.919,-1.416 -1.663,-2.941 -2.205,-4.535 m -2.264,-8.849 c -0.078,0.756 -0.119,1.525 -0.119,2.289 0,1.024 0.075,2.054 0.217,3.065 l 1.292,-0.182 c -0.136,-0.95 -0.204,-1.921 -0.204,-2.883 0,-0.717 0.038,-1.441 0.112,-2.158 z m 42.596,-3.029 -1.261,0.318 c 0.409,1.627 0.615,3.309 0.615,5 0,1.447 -0.152,2.886 -0.448,4.286 l 1.273,0.274 c 0.319,-1.488 0.481,-3.021 0.481,-4.56 0,-1.799 -0.223,-3.591 -0.66,-5.318 m -39.634,-5.822 c -0.924,1.539 -1.654,3.188 -2.167,4.901 l 1.246,0.376 c 0.483,-1.612 1.17,-3.16 2.036,-4.608 z m 35.449,-2.522 -1.011,0.822 c 1.062,1.308 1.961,2.745 2.667,4.273 l 1.184,-0.548 c -0.754,-1.626 -1.711,-3.157 -2.84,-4.547 m -29.044,-4.266 c -1.48,1.008 -2.836,2.201 -4.025,3.539 l 0.976,0.865 c 1.118,-1.261 2.39,-2.38 3.784,-3.326 z m 21.745,-1.548 -0.571,1.169 c 1.508,0.74 2.924,1.67 4.213,2.762 l 0.842,-0.994 c -1.37,-1.163 -2.878,-2.151 -4.484,-2.937 m -13.08,-1.921 c -1.77,0.288 -3.502,0.801 -5.145,1.518 l 0.524,1.197 c 1.542,-0.676 3.168,-1.156 4.831,-1.431 z m 4.013,-0.283 -0.026,1.304 c 1.69,0.034 3.366,0.281 4.986,0.727 l 0.345,-1.258 c -1.721,-0.473 -3.506,-0.737 -5.305,-0.773" />
          </g>
          <g
             transform="translate(1084.1426,1043.9058)"
             id="g4181">
            <path
               inkscape:connector-curvature="0"
               id="path4183"
               style="fill:#f7911d;fill-opacity:1;fill-rule:nonzero;stroke:none"
               d="m 0,0 c -1.604,0.507 -3.271,0.812 -4.956,0.906 l 0.075,1.302 C -3.09,2.106 -1.314,1.782 0.393,1.245 Z m -13.62,-0.477 -0.477,1.214 c 1.662,0.659 3.411,1.106 5.189,1.332 L -8.742,0.778 C -10.415,0.565 -12.055,0.143 -13.62,-0.477 M 7.597,-4.381 c -1.247,1.135 -2.63,2.116 -4.115,2.914 l 0.62,1.146 C 5.678,-1.166 7.15,-2.208 8.477,-3.418 Z m -28.49,-0.998 -0.943,0.903 c 1.238,1.295 2.634,2.437 4.149,3.394 l 0.693,-1.102 c -1.424,-0.899 -2.735,-1.975 -3.899,-3.195 m 33.551,-6.166 c -0.65,1.549 -1.498,3.019 -2.512,4.364 l 1.042,0.788 c 1.078,-1.433 1.976,-2.999 2.674,-4.645 z m -38.1,-1.332 -1.234,0.419 c 0.578,1.697 1.365,3.317 2.346,4.825 l 1.092,-0.71 c -0.92,-1.417 -1.664,-2.942 -2.204,-4.534 m -2.266,-8.854 c -0.077,0.757 -0.118,1.528 -0.118,2.289 0,1.027 0.07,2.059 0.217,3.069 l 1.287,-0.182 c -0.131,-0.95 -0.199,-1.921 -0.199,-2.887 0,-0.717 0.037,-1.44 0.112,-2.154 z m 42.597,-3.029 -1.261,0.318 c 0.409,1.626 0.616,3.31 0.616,5 0,1.446 -0.152,2.89 -0.451,4.29 l 1.275,0.274 c 0.318,-1.488 0.48,-3.023 0.48,-4.564 0,-1.799 -0.223,-3.587 -0.659,-5.318 m -39.635,-5.822 c -0.923,1.539 -1.653,3.188 -2.167,4.903 l 1.247,0.375 c 0.483,-1.61 1.17,-3.161 2.035,-4.608 z m 35.45,-2.522 -1.011,0.822 c 1.062,1.312 1.961,2.749 2.667,4.276 l 1.184,-0.551 c -0.751,-1.622 -1.708,-3.154 -2.84,-4.547 m -29.047,-4.267 c -1.481,1.011 -2.833,2.202 -4.023,3.543 l 0.977,0.867 c 1.116,-1.262 2.39,-2.384 3.779,-3.331 z m 21.752,-1.547 -0.579,1.169 c 1.511,0.744 2.928,1.674 4.215,2.762 l 0.842,-0.994 C 6.522,-37.14 5.014,-38.13 3.409,-38.918 m -13.087,-1.921 c -1.769,0.291 -3.5,0.802 -5.142,1.518 l 0.52,1.197 c 1.545,-0.676 3.171,-1.156 4.835,-1.43 z m 4.016,-0.284 -0.027,1.306 c 1.69,0.036 3.367,0.279 4.987,0.726 l 0.344,-1.257 c -1.72,-0.474 -3.505,-0.734 -5.304,-0.775" />
          </g>
          <g
             transform="translate(1726.3135,674.6348)"
             id="g4185">
            <path
               inkscape:connector-curvature="0"
               id="path4187"
               style="fill:#f7911f;fill-opacity:1;fill-rule:nonzero;stroke:none"
               d="M 0,0 H -5.392 V 4.453 H 8.905 V 0 H 3.455 V -24.682 H 0 Z" />
          </g>
          <g
             transform="translate(1753.5586,661.8428)"
             id="g4189">
            <path
               inkscape:connector-curvature="0"
               id="path4191"
               style="fill:#f7911f;fill-opacity:1;fill-rule:nonzero;stroke:none"
               d="M 0,0 C -0.111,3.759 -0.254,8.296 -0.223,12.231 H -0.308 C -0.927,8.688 -1.713,4.753 -2.555,1.079 l -2.753,-12.62 h -2.667 l -2.529,12.447 c -0.73,3.719 -1.403,7.695 -1.909,11.325 h -0.058 c -0.085,-3.802 -0.196,-8.427 -0.336,-12.407 l -0.422,-11.714 h -3.232 l 1.265,29.135 h 4.55 L -8.171,5.531 c 0.673,-3.415 1.265,-6.873 1.741,-10.116 h 0.085 c 0.503,3.158 1.15,6.745 1.879,10.16 l 2.613,11.67 H 2.641 L 3.736,-11.89 H 0.365 Z" />
          </g>
        </g>
      </g>
    </g>
  </g>
</svg>
